<?xml version="1.0" encoding="UTF-8" standalone="no"?>
<svg xmlns="http://www.w3.org/2000/svg"
     viewBox="0 0 2106 2048">

  <path d="M 2021.76,1024.00 L 2021.59,1176.42 L 2021.10,1239.52 L 2020.27,1287.88 L 2019.10,1328.58 L 2017.61,1364.36 L 2015.78,1396.61 L 2013.61,1426.17 L 2011.12,1453.56 L 2008.28,1479.18 L 2005.11,1503.28 L 2001.60,1526.06 L 1997.76,1547.70 L 1993.57,1568.30 L 1989.03,1587.97 L 1984.16,1606.78 L 1978.94,1624.82 L 1973.37,1642.13 L 1967.44,1658.76 L 1961.17,1674.76 L 1954.53,1690.15 L 1947.54,1704.97 L 1940.18,1719.25 L 1932.45,1733.01 L 1924.35,1746.27 L 1915.88,1759.04 L 1907.02,1771.35 L 1897.77,1783.21 L 1888.13,1794.63 L 1878.08,1805.62 L 1867.63,1816.19 L 1856.75,1826.36 L 1845.45,1836.13 L 1833.71,1845.51 L 1821.51,1854.50 L 1808.86,1863.11 L 1795.72,1871.36 L 1782.09,1879.23 L 1767.94,1886.75 L 1753.26,1893.90 L 1738.02,1900.70 L 1722.19,1907.16 L 1705.74,1913.26 L 1688.64,1919.02 L 1670.84,1924.44 L 1652.29,1929.51 L 1632.94,1934.26 L 1612.71,1938.66 L 1591.53,1942.74 L 1569.28,1946.48 L 1545.85,1949.89 L 1521.07,1952.97 L 1494.73,1955.73 L 1466.55,1958.16 L 1436.16,1960.26 L 1403.00,1962.04 L 1366.21,1963.50 L 1324.36,1964.63 L 1274.62,1965.43 L 1209.74,1965.92 L 1053.00,1966.08 L 896.26,1965.92 L 831.38,1965.43 L 781.64,1964.63 L 739.79,1963.50 L 703.00,1962.04 L 669.84,1960.26 L 639.45,1958.16 L 611.27,1955.73 L 584.93,1952.97 L 560.15,1949.89 L 536.72,1946.48 L 514.47,1942.74 L 493.29,1938.66 L 473.06,1934.26 L 453.71,1929.51 L 435.16,1924.44 L 417.36,1919.02 L 400.26,1913.26 L 383.81,1907.16 L 367.98,1900.70 L 352.74,1893.90 L 338.06,1886.75 L 323.91,1879.23 L 310.28,1871.36 L 297.14,1863.11 L 284.49,1854.50 L 272.29,1845.51 L 260.55,1836.13 L 249.25,1826.36 L 238.37,1816.19 L 227.92,1805.62 L 217.87,1794.63 L 208.23,1783.21 L 198.98,1771.35 L 190.12,1759.04 L 181.65,1746.27 L 173.55,1733.01 L 165.82,1719.25 L 158.46,1704.97 L 151.47,1690.15 L 144.83,1674.76 L 138.56,1658.76 L 132.63,1642.13 L 127.06,1624.82 L 121.84,1606.78 L 116.97,1587.97 L 112.43,1568.30 L 108.24,1547.70 L 104.40,1526.06 L 100.89,1503.28 L 97.72,1479.18 L 94.88,1453.56 L 92.39,1426.17 L 90.22,1396.61 L 88.39,1364.36 L 86.90,1328.58 L 85.73,1287.88 L 84.90,1239.52 L 84.41,1176.42 L 84.24,1024.00 L 84.41,871.58 L 84.90,808.48 L 85.73,760.12 L 86.90,719.42 L 88.39,683.64 L 90.22,651.39 L 92.39,621.83 L 94.88,594.44 L 97.72,568.82 L 100.89,544.72 L 104.40,521.94 L 108.24,500.30 L 112.43,479.70 L 116.97,460.03 L 121.84,441.22 L 127.06,423.18 L 132.63,405.87 L 138.56,389.24 L 144.83,373.24 L 151.47,357.85 L 158.46,343.03 L 165.82,328.75 L 173.55,314.99 L 181.65,301.73 L 190.12,288.96 L 198.98,276.65 L 208.23,264.79 L 217.87,253.37 L 227.92,242.38 L 238.37,231.81 L 249.25,221.64 L 260.55,211.87 L 272.29,202.49 L 284.49,193.50 L 297.14,184.89 L 310.28,176.64 L 323.91,168.77 L 338.06,161.25 L 352.74,154.10 L 367.98,147.30 L 383.81,140.84 L 400.26,134.74 L 417.36,128.98 L 435.16,123.56 L 453.71,118.49 L 473.06,113.74 L 493.29,109.34 L 514.47,105.26 L 536.72,101.52 L 560.15,98.11 L 584.93,95.03 L 611.27,92.27 L 639.45,89.84 L 669.84,87.74 L 703.00,85.96 L 739.79,84.50 L 781.64,83.37 L 831.38,82.57 L 896.26,82.08 L 1053.00,81.92 L 1209.74,82.08 L 1274.62,82.57 L 1324.36,83.37 L 1366.21,84.50 L 1403.00,85.96 L 1436.16,87.74 L 1466.55,89.84 L 1494.73,92.27 L 1521.07,95.03 L 1545.85,98.11 L 1569.28,101.52 L 1591.53,105.26 L 1612.71,109.34 L 1632.94,113.74 L 1652.29,118.49 L 1670.84,123.56 L 1688.64,128.98 L 1705.74,134.74 L 1722.19,140.84 L 1738.02,147.30 L 1753.26,154.10 L 1767.94,161.25 L 1782.09,168.77 L 1795.72,176.64 L 1808.86,184.89 L 1821.51,193.50 L 1833.71,202.49 L 1845.45,211.87 L 1856.75,221.64 L 1867.63,231.81 L 1878.08,242.38 L 1888.13,253.37 L 1897.77,264.79 L 1907.02,276.65 L 1915.88,288.96 L 1924.35,301.73 L 1932.45,314.99 L 1940.18,328.75 L 1947.54,343.03 L 1954.53,357.85 L 1961.17,373.24 L 1967.44,389.24 L 1973.37,405.87 L 1978.94,423.18 L 1984.16,441.22 L 1989.03,460.03 L 1993.57,479.70 L 1997.76,500.30 L 2001.60,521.94 L 2005.11,544.72 L 2008.28,568.82 L 2011.12,594.44 L 2013.61,621.83 L 2015.78,651.39 L 2017.61,683.64 L 2019.10,719.42 L 2020.27,760.12 L 2021.10,808.48 L 2021.59,871.58 L 2021.76,1024.00 Z" fill="#9C3D24" />

  <path fill="#EADFD2" d="M 314.00,615.00
           C 316.68,609.84 320.42,608.56 325.00,605.26
             325.00,605.26 342.00,592.00 342.00,592.00
             342.00,592.00 364.09,572.83 364.09,572.83
             364.09,572.83 386.96,550.00 386.96,550.00
             386.96,550.00 399.00,537.00 399.00,537.00
             426.51,509.44 450.54,480.43 488.00,466.19
             498.50,462.20 510.72,459.14 522.00,459.00
             533.29,458.87 543.06,459.48 554.00,462.77
             589.91,473.55 603.91,506.30 613.72,539.00
             613.72,539.00 625.87,584.00 625.87,584.00
             625.87,584.00 644.12,653.00 644.12,653.00
             644.12,653.00 670.15,753.00 670.15,753.00
             670.15,753.00 678.85,784.00 678.85,784.00
             678.85,784.00 694.88,848.00 694.88,848.00
             694.88,848.00 736.58,1003.00 736.58,1003.00
             736.58,1003.00 764.15,1107.00 764.15,1107.00
             764.15,1107.00 771.37,1134.00 771.37,1134.00
             772.75,1139.36 772.94,1144.01 777.00,1148.00
             778.14,1141.91 781.15,1137.55 783.69,1132.00
             783.69,1132.00 796.75,1104.00 796.75,1104.00
             796.75,1104.00 824.31,1045.00 824.31,1045.00
             824.31,1045.00 831.69,1030.00 831.69,1030.00
             831.69,1030.00 920.31,839.00 920.31,839.00
             920.31,839.00 929.69,820.00 929.69,820.00
             929.69,820.00 947.78,778.00 947.78,778.00
             953.84,765.17 958.49,756.66 968.17,746.00
             983.87,728.69 1013.37,714.28 1037.00,714.00
             1052.00,713.83 1060.19,713.25 1075.00,717.15
             1093.56,722.04 1112.94,732.63 1125.83,747.00
             1142.38,765.45 1149.11,784.95 1158.86,807.00
             1158.86,807.00 1171.31,834.00 1171.31,834.00
             1171.31,834.00 1191.69,877.00 1191.69,877.00
             1191.69,877.00 1201.26,898.00 1201.26,898.00
             1201.26,898.00 1212.22,920.00 1212.22,920.00
             1212.22,920.00 1228.31,956.00 1228.31,956.00
             1228.31,956.00 1271.69,1048.00 1271.69,1048.00
             1271.69,1048.00 1304.75,1119.00 1304.75,1119.00
             1308.14,1125.78 1315.54,1143.53 1320.00,1148.00
             1320.00,1148.00 1329.77,1112.00 1329.77,1112.00
             1329.77,1112.00 1361.12,992.00 1361.12,992.00
             1361.12,992.00 1434.88,711.00 1434.88,711.00
             1434.88,711.00 1461.72,610.83 1461.72,610.83
             1461.72,610.83 1474.57,562.00 1474.57,562.00
             1474.57,562.00 1480.37,537.99 1480.37,537.99
             1489.08,508.49 1506.87,474.09 1538.00,463.75
             1550.50,459.59 1558.02,458.85 1571.00,459.00
             1577.68,459.08 1586.45,460.61 1593.00,462.12
             1621.44,468.67 1637.81,481.69 1659.00,500.83
             1659.00,500.83 1693.91,534.99 1693.91,534.99
             1693.91,534.99 1723.99,566.96 1723.99,566.96
             1758.02,600.15 1784.00,613.91 1821.00,640.29
             1839.62,653.56 1862.68,670.78 1877.42,688.00
             1882.30,693.69 1891.76,703.37 1892.00,711.00
             1897.70,714.29 1901.35,724.11 1904.24,730.00
             1913.13,748.07 1919.85,773.81 1920.00,794.00
             1920.32,837.93 1911.13,865.43 1896.69,906.00
             1896.69,906.00 1869.00,979.00 1869.00,979.00
             1869.00,979.00 1831.00,1082.00 1831.00,1082.00
             1817.68,1113.08 1788.72,1148.57 1752.00,1149.00
             1737.74,1149.16 1727.54,1148.46 1714.00,1143.08
             1707.64,1140.55 1698.71,1134.44 1693.00,1130.41
             1672.83,1116.18 1651.32,1089.91 1639.90,1068.00
             1622.80,1035.23 1614.05,1005.98 1611.92,969.01
             1611.92,969.01 1611.00,957.00 1611.00,957.00
             1611.00,957.00 1611.00,934.00 1611.00,934.00
             1611.03,915.66 1614.94,897.05 1617.92,879.00
             1617.92,879.00 1630.42,801.00 1630.42,801.00
             1630.42,801.00 1637.09,747.00 1637.09,747.00
             1637.09,747.00 1638.00,737.00 1638.00,737.00
             1638.37,704.75 1635.16,665.49 1624.31,635.00
             1620.08,623.12 1615.34,613.85 1608.99,603.00
             1600.32,588.19 1590.22,578.10 1576.00,568.51
             1570.48,564.79 1565.59,561.47 1559.00,560.00
             1560.10,564.61 1565.43,575.06 1567.69,580.00
             1567.69,580.00 1581.66,615.00 1581.66,615.00
             1593.21,648.41 1598.31,683.74 1598.00,719.00
             1598.00,719.00 1597.09,732.00 1597.09,732.00
             1595.69,754.20 1592.25,773.27 1588.26,795.00
             1588.26,795.00 1582.58,828.00 1582.58,828.00
             1576.59,861.22 1570.43,894.23 1568.96,928.00
             1568.96,928.00 1568.00,941.00 1568.00,941.00
             1567.97,959.10 1568.34,977.09 1571.32,995.00
             1572.51,1002.15 1577.33,1020.11 1576.69,1026.01
             1576.69,1026.01 1568.15,1061.00 1568.15,1061.00
             1568.15,1061.00 1554.73,1112.00 1554.73,1112.00
             1554.73,1112.00 1525.26,1227.00 1525.26,1227.00
             1525.26,1227.00 1513.65,1269.00 1513.65,1269.00
             1513.65,1269.00 1494.15,1343.00 1494.15,1343.00
             1494.15,1343.00 1485.85,1377.00 1485.85,1377.00
             1485.85,1377.00 1470.79,1434.00 1470.79,1434.00
             1470.79,1434.00 1466.38,1450.00 1466.38,1450.00
             1466.38,1450.00 1458.71,1480.00 1458.71,1480.00
             1457.34,1484.75 1456.12,1493.17 1452.00,1496.00
             1452.62,1502.98 1448.94,1509.88 1445.92,1516.00
             1437.47,1533.11 1430.82,1540.36 1418.00,1554.00
             1418.00,1554.00 1416.00,1552.00 1416.00,1552.00
             1416.00,1552.00 1416.00,1556.00 1416.00,1556.00
             1413.11,1557.54 1411.56,1559.26 1408.96,1561.10
             1408.96,1561.10 1396.00,1568.88 1396.00,1568.88
             1384.05,1575.21 1367.51,1578.98 1354.00,1579.00
             1341.97,1579.02 1331.80,1579.24 1320.00,1575.80
             1290.73,1567.27 1265.43,1548.05 1249.43,1522.00
             1244.30,1513.65 1240.89,1503.06 1236.96,1494.00
             1236.96,1494.00 1227.88,1475.00 1227.88,1475.00
             1227.88,1475.00 1214.33,1444.28 1214.33,1444.28
             1214.33,1444.28 1188.89,1391.00 1188.89,1391.00
             1185.74,1384.25 1178.25,1369.84 1178.00,1363.00
             1174.35,1360.65 1172.41,1354.03 1171.00,1350.00
             1183.34,1347.18 1210.05,1333.61 1218.00,1324.00
             1218.00,1324.00 1194.09,1325.90 1194.09,1325.90
             1194.09,1325.90 1185.00,1325.08 1185.00,1325.08
             1185.00,1325.08 1166.00,1323.71 1166.00,1323.71
             1137.58,1319.32 1101.61,1305.08 1085.55,1280.00
             1083.12,1276.21 1081.86,1272.59 1080.06,1268.58
             1071.29,1249.07 1071.64,1243.96 1068.00,1224.00
             1081.82,1220.27 1099.83,1208.32 1111.00,1199.40
             1130.73,1183.64 1151.32,1164.45 1161.91,1141.00
             1172.79,1116.90 1173.86,1093.90 1150.00,1077.04
             1135.13,1066.54 1110.89,1061.98 1093.00,1059.85
             1093.00,1059.85 1071.00,1058.00 1071.00,1058.00
             1071.00,1058.00 1050.00,1057.00 1050.00,1057.00
             1050.00,1057.00 1012.00,1058.83 1012.00,1058.83
             993.33,1060.64 974.31,1063.06 957.00,1070.86
             949.75,1074.13 941.44,1080.05 936.18,1086.00
             932.68,1089.97 930.63,1095.33 926.00,1098.00
             926.76,1103.28 924.81,1107.12 925.04,1113.00
             925.23,1117.97 927.09,1127.24 928.67,1132.00
             932.32,1142.93 937.99,1150.79 944.58,1160.00
             958.15,1178.98 972.06,1192.25 990.83,1206.00
             999.98,1212.70 1014.97,1221.48 1026.00,1224.00
             1023.16,1245.50 1019.55,1266.07 1006.10,1284.00
             985.04,1312.08 946.63,1323.74 913.00,1325.91
             913.00,1325.91 892.00,1325.00 892.00,1325.00
             886.93,1324.95 881.87,1324.48 877.00,1323.00
             878.31,1328.26 883.68,1331.14 888.00,1334.00
             895.87,1339.21 914.83,1347.52 924.00,1350.00
             924.00,1350.00 902.04,1397.00 902.04,1397.00
             902.04,1397.00 896.53,1410.00 896.53,1410.00
             896.53,1410.00 869.30,1469.00 869.30,1469.00
             869.30,1469.00 854.78,1500.00 854.78,1500.00
             845.99,1518.60 840.28,1531.98 825.00,1546.91
             811.23,1560.37 796.61,1570.03 778.00,1575.49
             735.34,1588.01 688.63,1574.21 661.92,1538.00
             647.63,1518.63 639.81,1496.04 633.73,1473.00
             633.73,1473.00 630.14,1458.00 630.14,1458.00
             630.14,1458.00 609.53,1379.00 609.53,1379.00
             609.53,1379.00 597.47,1334.00 597.47,1334.00
             597.47,1334.00 581.89,1275.00 581.89,1275.00
             581.89,1275.00 544.85,1133.00 544.85,1133.00
             544.85,1133.00 537.82,1108.17 537.82,1108.17
             537.82,1108.17 528.09,1070.00 528.09,1070.00
             524.96,1059.06 518.44,1038.49 517.46,1028.00
             516.81,1020.93 519.71,1010.15 520.92,1003.00
             523.51,987.62 525.81,971.61 526.00,956.00
             526.57,906.31 517.36,857.74 508.58,809.00
             504.74,787.70 500.42,766.61 498.91,745.00
             498.91,745.00 497.96,735.00 497.96,735.00
             497.96,735.00 497.96,721.00 497.96,721.00
             497.63,716.94 496.88,715.64 497.09,711.00
             498.59,677.93 498.89,661.60 508.42,629.00
             508.42,629.00 523.87,586.00 523.87,586.00
             527.17,578.33 533.52,566.90 535.00,559.00
             520.71,565.19 514.18,570.68 503.28,581.42
             498.76,585.89 494.28,593.27 489.00,596.00
             488.55,601.33 484.67,606.24 482.24,611.00
             477.60,620.11 473.40,629.31 470.08,639.00
             459.52,669.79 455.43,699.51 455.81,731.92
             456.30,774.05 467.37,824.91 474.43,867.00
             478.29,889.97 482.97,913.66 483.00,937.00
             483.00,937.00 483.00,960.00 483.00,960.00
             482.97,981.96 476.65,1014.35 469.22,1035.00
             464.38,1048.45 458.66,1061.78 451.19,1074.00
             437.58,1096.26 420.31,1116.86 399.00,1132.14
             386.02,1141.45 370.26,1148.81 354.00,1149.00
             343.33,1149.12 336.44,1148.85 326.00,1145.80
             305.48,1139.78 291.60,1126.05 279.59,1109.00
             258.80,1079.48 251.69,1049.00 238.94,1016.00
             238.94,1016.00 209.31,936.00 209.31,936.00
             209.31,936.00 196.66,902.00 196.66,902.00
             196.66,902.00 186.74,875.00 186.74,875.00
             181.03,857.36 174.31,822.42 174.03,804.00
             174.03,804.00 175.05,792.00 175.05,792.00
             175.05,792.00 175.05,783.00 175.05,783.00
             178.25,751.15 193.10,718.17 212.50,693.00
             223.65,678.53 240.92,663.72 256.00,653.34
             256.00,653.34 295.00,625.98 295.00,625.98
             300.32,622.31 307.61,615.63 314.00,615.00 Z
           M 1598.00,464.00
           C 1598.00,464.00 1597.00,464.00 1597.00,464.00
             1597.00,464.00 1598.00,465.00 1598.00,465.00
             1598.00,465.00 1598.00,464.00 1598.00,464.00 Z
           M 1524.00,475.00
           C 1524.00,475.00 1523.00,475.00 1523.00,475.00
             1523.00,475.00 1524.00,476.00 1524.00,476.00
             1524.00,476.00 1524.00,475.00 1524.00,475.00 Z
           M 465.00,481.00
           C 465.00,481.00 464.00,481.00 464.00,481.00
             464.00,481.00 465.00,482.00 465.00,482.00
             465.00,482.00 465.00,481.00 465.00,481.00 Z
           M 1517.00,482.00
           C 1517.00,482.00 1516.00,482.00 1516.00,482.00
             1516.00,482.00 1517.00,483.00 1517.00,483.00
             1517.00,483.00 1517.00,482.00 1517.00,482.00 Z
           M 427.00,513.00
           C 427.00,513.00 426.00,513.00 426.00,513.00
             426.00,513.00 427.00,514.00 427.00,514.00
             427.00,514.00 427.00,513.00 427.00,513.00 Z
           M 1701.00,544.00
           C 1701.00,544.00 1700.00,544.00 1700.00,544.00
             1700.00,544.00 1701.00,545.00 1701.00,545.00
             1701.00,545.00 1701.00,544.00 1701.00,544.00 Z
           M 1726.00,572.00
           C 1726.00,572.00 1725.00,572.00 1725.00,572.00
             1725.00,572.00 1726.00,573.00 1726.00,573.00
             1726.00,573.00 1726.00,572.00 1726.00,572.00 Z
           M 506.00,573.00
           C 506.00,573.00 505.00,573.00 505.00,573.00
             505.00,573.00 506.00,574.00 506.00,574.00
             506.00,574.00 506.00,573.00 506.00,573.00 Z
           M 1589.00,573.00
           C 1589.00,573.00 1588.00,573.00 1588.00,573.00
             1588.00,573.00 1589.00,574.00 1589.00,574.00
             1589.00,574.00 1589.00,573.00 1589.00,573.00 Z
           M 529.00,583.00
           C 529.00,583.00 528.00,583.00 528.00,583.00
             528.00,583.00 529.00,584.00 529.00,584.00
             529.00,584.00 529.00,583.00 529.00,583.00 Z
           M 323.00,610.00
           C 323.00,610.00 322.00,610.00 322.00,610.00
             322.00,610.00 323.00,611.00 323.00,611.00
             323.00,611.00 323.00,610.00 323.00,610.00 Z
           M 1626.00,629.00
           C 1626.00,629.00 1625.00,629.00 1625.00,629.00
             1625.00,629.00 1626.00,630.00 1626.00,630.00
             1626.00,630.00 1626.00,629.00 1626.00,629.00 Z
           M 640.00,646.00
           C 640.00,646.00 639.00,646.00 639.00,646.00
             639.00,646.00 640.00,647.00 640.00,647.00
             640.00,647.00 640.00,646.00 640.00,646.00 Z
           M 647.00,676.00
           C 647.00,676.00 646.00,676.00 646.00,676.00
             646.00,676.00 647.00,677.00 647.00,677.00
             647.00,677.00 647.00,676.00 647.00,676.00 Z
           M 226.00,682.00
           C 226.00,682.00 225.00,682.00 225.00,682.00
             225.00,682.00 226.00,683.00 226.00,683.00
             226.00,683.00 226.00,682.00 226.00,682.00 Z
           M 1083.00,722.00
           C 1083.00,722.00 1082.00,722.00 1082.00,722.00
             1082.00,722.00 1083.00,723.00 1083.00,723.00
             1083.00,723.00 1083.00,722.00 1083.00,722.00 Z
           M 1434.00,725.00
           C 1434.00,725.00 1433.00,725.00 1433.00,725.00
             1433.00,725.00 1434.00,726.00 1434.00,726.00
             1434.00,726.00 1434.00,725.00 1434.00,725.00 Z
           M 1123.00,746.00
           C 1123.00,746.00 1122.00,746.00 1122.00,746.00
             1122.00,746.00 1123.00,747.00 1123.00,747.00
             1123.00,747.00 1123.00,746.00 1123.00,746.00 Z
           M 187.00,747.00
           C 187.00,747.00 186.00,747.00 186.00,747.00
             186.00,747.00 187.00,748.00 187.00,748.00
             187.00,748.00 187.00,747.00 187.00,747.00 Z
           M 1128.00,754.00
           C 1128.00,754.00 1127.00,754.00 1127.00,754.00
             1127.00,754.00 1128.00,755.00 1128.00,755.00
             1128.00,755.00 1128.00,754.00 1128.00,754.00 Z
           M 1633.00,807.00
           C 1633.00,807.00 1632.00,807.00 1632.00,807.00
             1632.00,807.00 1633.00,808.00 1633.00,808.00
             1633.00,808.00 1633.00,807.00 1633.00,807.00 Z
           M 686.00,821.00
           C 686.00,821.00 685.00,821.00 685.00,821.00
             685.00,821.00 686.00,822.00 686.00,822.00
             686.00,822.00 686.00,821.00 686.00,821.00 Z
           M 1916.00,827.00
           C 1916.00,827.00 1915.00,827.00 1915.00,827.00
             1915.00,827.00 1916.00,828.00 1916.00,828.00
             1916.00,828.00 1916.00,827.00 1916.00,827.00 Z
           M 516.00,837.00
           C 516.00,837.00 515.00,837.00 515.00,837.00
             515.00,837.00 516.00,838.00 516.00,838.00
             516.00,838.00 516.00,837.00 516.00,837.00 Z
           M 1175.00,845.00
           C 1175.00,845.00 1174.00,845.00 1174.00,845.00
             1174.00,845.00 1175.00,846.00 1175.00,846.00
             1175.00,846.00 1175.00,845.00 1175.00,845.00 Z
           M 185.00,855.00
           C 185.00,855.00 184.00,855.00 184.00,855.00
             184.00,855.00 185.00,856.00 185.00,856.00
             185.00,856.00 185.00,855.00 185.00,855.00 Z
           M 186.00,859.00
           C 186.00,859.00 185.00,859.00 185.00,859.00
             185.00,859.00 186.00,860.00 186.00,860.00
             186.00,860.00 186.00,859.00 186.00,859.00 Z
           M 914.00,861.00
           C 914.00,861.00 913.00,861.00 913.00,861.00
             913.00,861.00 914.00,862.00 914.00,862.00
             914.00,862.00 914.00,861.00 914.00,861.00 Z
           M 1395.00,877.00
           C 1395.00,877.00 1394.00,877.00 1394.00,877.00
             1394.00,877.00 1395.00,878.00 1395.00,878.00
             1395.00,878.00 1395.00,877.00 1395.00,877.00 Z
           M 1393.00,885.00
           C 1393.00,885.00 1392.00,885.00 1392.00,885.00
             1392.00,885.00 1393.00,886.00 1393.00,886.00
             1393.00,886.00 1393.00,885.00 1393.00,885.00 Z
           M 1206.00,912.00
           C 1206.00,912.00 1205.00,912.00 1205.00,912.00
             1205.00,912.00 1206.00,913.00 1206.00,913.00
             1206.00,913.00 1206.00,912.00 1206.00,912.00 Z
           M 882.00,930.00
           C 882.00,930.00 881.00,930.00 881.00,930.00
             881.00,930.00 882.00,931.00 882.00,931.00
             882.00,931.00 882.00,930.00 882.00,930.00 Z
           M 1377.00,941.00
           C 1377.00,941.00 1376.00,941.00 1376.00,941.00
             1376.00,941.00 1377.00,942.00 1377.00,942.00
             1377.00,942.00 1377.00,941.00 1377.00,941.00 Z
           M 1614.00,947.00
           C 1614.00,947.00 1613.00,947.00 1613.00,947.00
             1613.00,947.00 1614.00,948.00 1614.00,948.00
             1614.00,948.00 1614.00,947.00 1614.00,947.00 Z
           M 1227.00,961.00
           C 1227.00,961.00 1226.00,961.00 1226.00,961.00
             1226.00,961.00 1227.00,962.00 1227.00,962.00
             1227.00,962.00 1227.00,961.00 1227.00,961.00 Z
           M 231.00,983.00
           C 231.00,983.00 230.00,983.00 230.00,983.00
             230.00,983.00 231.00,984.00 231.00,984.00
             231.00,984.00 231.00,983.00 231.00,983.00 Z
           M 246.00,1029.00
           C 246.00,1029.00 245.00,1029.00 245.00,1029.00
             245.00,1029.00 246.00,1030.00 246.00,1030.00
             246.00,1030.00 246.00,1029.00 246.00,1029.00 Z
           M 1352.00,1038.00
           C 1352.00,1038.00 1351.00,1038.00 1351.00,1038.00
             1351.00,1038.00 1352.00,1039.00 1352.00,1039.00
             1352.00,1039.00 1352.00,1038.00 1352.00,1038.00 Z
           M 1350.00,1046.00
           C 1350.00,1046.00 1349.00,1046.00 1349.00,1046.00
             1349.00,1046.00 1350.00,1047.00 1350.00,1047.00
             1350.00,1047.00 1350.00,1046.00 1350.00,1046.00 Z
           M 1017.00,1055.00
           C 1017.00,1055.00 1016.00,1055.00 1016.00,1055.00
             1016.00,1055.00 1017.00,1056.00 1017.00,1056.00
             1017.00,1056.00 1017.00,1055.00 1017.00,1055.00 Z
           M 1108.00,1059.00
           C 1108.00,1059.00 1107.00,1059.00 1107.00,1059.00
             1107.00,1059.00 1108.00,1060.00 1108.00,1060.00
             1108.00,1060.00 1108.00,1059.00 1108.00,1059.00 Z
           M 1276.00,1062.00
           C 1276.00,1062.00 1275.00,1062.00 1275.00,1062.00
             1275.00,1062.00 1276.00,1063.00 1276.00,1063.00
             1276.00,1063.00 1276.00,1062.00 1276.00,1062.00 Z
           M 1837.00,1062.00
           C 1837.00,1062.00 1836.00,1062.00 1836.00,1062.00
             1836.00,1062.00 1837.00,1063.00 1837.00,1063.00
             1837.00,1063.00 1837.00,1062.00 1837.00,1062.00 Z
           M 529.00,1063.00
           C 529.00,1063.00 528.00,1063.00 528.00,1063.00
             528.00,1063.00 529.00,1064.00 529.00,1064.00
             529.00,1064.00 529.00,1063.00 529.00,1063.00 Z
           M 959.00,1067.00
           C 959.00,1067.00 958.00,1067.00 958.00,1067.00
             958.00,1067.00 959.00,1068.00 959.00,1068.00
             959.00,1068.00 959.00,1067.00 959.00,1067.00 Z
           M 1345.00,1067.00
           C 1345.00,1067.00 1344.00,1067.00 1344.00,1067.00
             1344.00,1067.00 1345.00,1068.00 1345.00,1068.00
             1345.00,1068.00 1345.00,1067.00 1345.00,1067.00 Z
           M 955.00,1068.00
           C 955.00,1068.00 954.00,1068.00 954.00,1068.00
             954.00,1068.00 955.00,1069.00 955.00,1069.00
             955.00,1069.00 955.00,1068.00 955.00,1068.00 Z
           M 943.00,1075.00
           C 943.00,1075.00 942.00,1075.00 942.00,1075.00
             942.00,1075.00 943.00,1076.00 943.00,1076.00
             943.00,1076.00 943.00,1075.00 943.00,1075.00 Z
           M 534.00,1077.00
           C 534.00,1077.00 533.00,1077.00 533.00,1077.00
             533.00,1077.00 534.00,1078.00 534.00,1078.00
             534.00,1078.00 534.00,1077.00 534.00,1077.00 Z
           M 413.00,1117.00
           C 413.00,1117.00 412.00,1117.00 412.00,1117.00
             412.00,1117.00 413.00,1118.00 413.00,1118.00
             413.00,1118.00 413.00,1117.00 413.00,1117.00 Z
           M 1331.00,1120.00
           C 1331.00,1120.00 1330.00,1120.00 1330.00,1120.00
             1330.00,1120.00 1331.00,1121.00 1331.00,1121.00
             1331.00,1121.00 1331.00,1120.00 1331.00,1120.00 Z
           M 1171.00,1122.00
           C 1171.00,1122.00 1170.00,1122.00 1170.00,1122.00
             1170.00,1122.00 1171.00,1123.00 1171.00,1123.00
             1171.00,1123.00 1171.00,1122.00 1171.00,1122.00 Z
           M 298.00,1125.00
           C 298.00,1125.00 297.00,1125.00 297.00,1125.00
             297.00,1125.00 298.00,1126.00 298.00,1126.00
             298.00,1126.00 298.00,1125.00 298.00,1125.00 Z
           M 929.00,1140.00
           C 929.00,1140.00 928.00,1140.00 928.00,1140.00
             928.00,1140.00 929.00,1141.00 929.00,1141.00
             929.00,1141.00 929.00,1140.00 929.00,1140.00 Z
           M 554.00,1147.00
           C 554.00,1147.00 553.00,1147.00 553.00,1147.00
             553.00,1147.00 554.00,1148.00 554.00,1148.00
             554.00,1148.00 554.00,1147.00 554.00,1147.00 Z
           M 1156.00,1159.00
           C 1156.00,1159.00 1155.00,1159.00 1155.00,1159.00
             1155.00,1159.00 1156.00,1160.00 1156.00,1160.00
             1156.00,1160.00 1156.00,1159.00 1156.00,1159.00 Z
           M 956.00,1179.00
           C 956.00,1179.00 955.00,1179.00 955.00,1179.00
             955.00,1179.00 956.00,1180.00 956.00,1180.00
             956.00,1180.00 956.00,1179.00 956.00,1179.00 Z
           M 561.00,1182.00
           C 561.00,1182.00 560.00,1182.00 560.00,1182.00
             560.00,1182.00 561.00,1183.00 561.00,1183.00
             561.00,1183.00 561.00,1182.00 561.00,1182.00 Z
           M 1091.00,1216.00
           C 1091.00,1216.00 1090.00,1216.00 1090.00,1216.00
             1090.00,1216.00 1091.00,1217.00 1091.00,1217.00
             1091.00,1217.00 1091.00,1216.00 1091.00,1216.00 Z
           M 1079.00,1225.00
           C 1079.00,1225.00 1078.00,1225.00 1078.00,1225.00
             1078.00,1225.00 1079.00,1226.00 1079.00,1226.00
             1079.00,1226.00 1079.00,1225.00 1079.00,1225.00 Z
           M 1520.00,1235.00
           C 1520.00,1235.00 1519.00,1235.00 1519.00,1235.00
             1519.00,1235.00 1520.00,1236.00 1520.00,1236.00
             1520.00,1236.00 1520.00,1235.00 1520.00,1235.00 Z
           M 577.00,1240.00
           C 577.00,1240.00 576.00,1240.00 576.00,1240.00
             576.00,1240.00 577.00,1241.00 577.00,1241.00
             577.00,1241.00 577.00,1240.00 577.00,1240.00 Z
           M 586.00,1274.00
           C 586.00,1274.00 585.00,1274.00 585.00,1274.00
             585.00,1274.00 586.00,1275.00 586.00,1275.00
             586.00,1275.00 586.00,1274.00 586.00,1274.00 Z
           M 586.00,1278.00
           C 586.00,1278.00 585.00,1278.00 585.00,1278.00
             585.00,1278.00 586.00,1279.00 586.00,1279.00
             586.00,1279.00 586.00,1278.00 586.00,1278.00 Z
           M 1126.00,1308.00
           C 1126.00,1308.00 1125.00,1308.00 1125.00,1308.00
             1125.00,1308.00 1126.00,1309.00 1126.00,1309.00
             1126.00,1309.00 1126.00,1308.00 1126.00,1308.00 Z
           M 960.00,1313.00
           C 960.00,1313.00 959.00,1313.00 959.00,1313.00
             959.00,1313.00 960.00,1314.00 960.00,1314.00
             960.00,1314.00 960.00,1313.00 960.00,1313.00 Z
           M 877.00,1328.00
           C 877.00,1328.00 876.00,1328.00 876.00,1328.00
             876.00,1328.00 877.00,1329.00 877.00,1329.00
             877.00,1329.00 877.00,1328.00 877.00,1328.00 Z
           M 609.00,1366.00
           C 609.00,1366.00 608.00,1366.00 608.00,1366.00
             608.00,1366.00 609.00,1367.00 609.00,1367.00
             609.00,1367.00 609.00,1366.00 609.00,1366.00 Z
           M 899.00,1398.00
           C 899.00,1398.00 898.00,1398.00 898.00,1398.00
             898.00,1398.00 899.00,1399.00 899.00,1399.00
             899.00,1399.00 899.00,1398.00 899.00,1398.00 Z
           M 618.00,1401.00
           C 618.00,1401.00 617.00,1401.00 617.00,1401.00
             617.00,1401.00 618.00,1402.00 618.00,1402.00
             618.00,1402.00 618.00,1401.00 618.00,1401.00 Z
           M 619.00,1406.00
           C 619.00,1406.00 618.00,1406.00 618.00,1406.00
             618.00,1406.00 619.00,1407.00 619.00,1407.00
             619.00,1407.00 619.00,1406.00 619.00,1406.00 Z
           M 879.00,1442.00
           C 879.00,1442.00 878.00,1442.00 878.00,1442.00
             878.00,1442.00 879.00,1443.00 879.00,1443.00
             879.00,1443.00 879.00,1442.00 879.00,1442.00 Z
           M 644.00,1497.00
           C 644.00,1497.00 643.00,1497.00 643.00,1497.00
             643.00,1497.00 644.00,1498.00 644.00,1498.00
             644.00,1498.00 644.00,1497.00 644.00,1497.00 Z
           M 1242.00,1499.00
           C 1242.00,1499.00 1241.00,1499.00 1241.00,1499.00
             1241.00,1499.00 1242.00,1500.00 1242.00,1500.00
             1242.00,1500.00 1242.00,1499.00 1242.00,1499.00 Z
           M 849.00,1510.00
           C 849.00,1510.00 848.00,1510.00 848.00,1510.00
             848.00,1510.00 849.00,1511.00 849.00,1511.00
             849.00,1511.00 849.00,1510.00 849.00,1510.00 Z
           M 848.00,1511.00
           C 848.00,1511.00 847.00,1511.00 847.00,1511.00
             847.00,1511.00 848.00,1512.00 848.00,1512.00
             848.00,1512.00 848.00,1511.00 848.00,1511.00 Z
           M 848.00,1513.00
           C 848.00,1513.00 847.00,1513.00 847.00,1513.00
             847.00,1513.00 848.00,1514.00 848.00,1514.00
             848.00,1514.00 848.00,1513.00 848.00,1513.00 Z
           M 657.00,1524.00
           C 657.00,1524.00 656.00,1524.00 656.00,1524.00
             656.00,1524.00 657.00,1525.00 657.00,1525.00
             657.00,1525.00 657.00,1524.00 657.00,1524.00 Z
           M 1262.00,1532.00
           C 1262.00,1532.00 1261.00,1532.00 1261.00,1532.00
             1261.00,1532.00 1262.00,1533.00 1262.00,1533.00
             1262.00,1533.00 1262.00,1532.00 1262.00,1532.00 Z
           M 1429.00,1538.00
           C 1429.00,1538.00 1428.00,1538.00 1428.00,1538.00
             1428.00,1538.00 1429.00,1539.00 1429.00,1539.00
             1429.00,1539.00 1429.00,1538.00 1429.00,1538.00 Z
           M 674.00,1547.00
           C 674.00,1547.00 673.00,1547.00 673.00,1547.00
             673.00,1547.00 674.00,1548.00 674.00,1548.00
             674.00,1548.00 674.00,1547.00 674.00,1547.00 Z
           M 678.00,1551.00
           C 678.00,1551.00 677.00,1551.00 677.00,1551.00
             677.00,1551.00 678.00,1552.00 678.00,1552.00
             678.00,1552.00 678.00,1551.00 678.00,1551.00 Z
           M 1413.00,1554.00
           C 1413.00,1554.00 1412.00,1554.00 1412.00,1554.00
             1412.00,1554.00 1413.00,1555.00 1413.00,1555.00
             1413.00,1555.00 1413.00,1554.00 1413.00,1554.00 Z
           M 791.00,1566.00
           C 791.00,1566.00 790.00,1566.00 790.00,1566.00
             790.00,1566.00 791.00,1567.00 791.00,1567.00
             791.00,1567.00 791.00,1566.00 791.00,1566.00 Z
           M 1381.00,1572.00
           C 1381.00,1572.00 1380.00,1572.00 1380.00,1572.00
             1380.00,1572.00 1381.00,1573.00 1381.00,1573.00
             1381.00,1573.00 1381.00,1572.00 1381.00,1572.00 Z"/>

</svg>
